<?xml version="1.0" encoding="utf-8"?>
<!-- Generator: Adobe Illustrator 27.0.0, SVG Export Plug-In . SVG Version: 6.00 Build 0)  -->
<svg version="1.1" id="Capa_1" xmlns="http://www.w3.org/2000/svg" xmlns:xlink="http://www.w3.org/1999/xlink" x="0px" y="0px"
	 viewBox="0 0 210.7 110.3" style="enable-background:new 0 0 210.7 110.3;" xml:space="preserve">
<style type="text/css">
	.st0{fill:#E32112;}
</style>
<g>
	<g>
		<path class="st0" d="M4.3,5.1c8.4,4.4,16.1,9.4,24.5,12.9c5.5,2.4,11.9,4.2,17.7,3.8c6.3-0.5,13-3,18.6-6.3
			C80.4,6.6,96.8,3.2,114.4,4.4c1.2,0.1,2.3,0.3,3.5,0.6c0.3,0,0.5,0.4,0.7,0.6c-38.1,22.8-37.2,76.4,2.3,99.1
			c-3.2,0.3-5.5,0.7-8,0.9c-20.5,1.6-40.1-0.3-58.3-11.3c-13.8-8.3-28.4-8.7-43.1-2.2c-0.9,0.5-1.8,0.8-2.8,1.1
			c-0.3,0.1-0.6,0-1-0.1c-1.1-14,12.6-27.3,27.9-27.3c3.9,0,7.9,1.5,11.8,1.4c3.6,0,7.7-0.4,10.7-2c4.4-2.5,5.8-7.7,4.2-11.7
			c-1.7-4.4-6-6.3-11.4-6.2c-6.2,0.2-12.9,1-18.7-0.7C17.4,42.4,4.2,23.7,3.8,8.3C3.9,7.4,4.1,6.5,4.3,5.1z"/>
		<circle class="st0" cx="158.3" cy="55" r="49"/>
	</g>
</g>
</svg>
