<?xml version="1.0" encoding="utf-8"?>
<!-- Generator: Adobe Illustrator 27.0.0, SVG Export Plug-In . SVG Version: 6.00 Build 0)  -->
<svg version="1.1" id="Capa_1" xmlns="http://www.w3.org/2000/svg" xmlns:xlink="http://www.w3.org/1999/xlink" x="0px" y="0px"
	 viewBox="0 0 210.7 110.3" style="enable-background:new 0 0 210.7 110.3;" xml:space="preserve">
<g>
	<path d="M1.7,14.2c8.6,4,16.6,8.5,25.1,11.6c5.6,2.1,12.1,3.6,17.9,2.9c6.3-0.8,12.8-3.7,18.2-7.3c14.9-9.7,31.1-14,48.7-13.7
		c1.2,0,2.3,0.2,3.5,0.4c0.3,0,0.5,0.4,0.7,0.6c-36.8,24.8-33.1,78.3,7.5,98.8c-3.2,0.5-5.5,1-7.9,1.3c-20.4,2.7-40.1,1.8-58.8-8.2
		c-14.2-7.6-28.8-7.2-43.2,0.1c-0.9,0.5-1.8,0.9-2.7,1.2c-0.3,0.1-0.6,0-1,0C7.9,88,20.8,74,36.1,73.2c3.9-0.2,8,1.1,11.9,0.8
		c3.6-0.2,7.7-0.8,10.6-2.6c4.3-2.7,5.4-8,3.6-11.9c-1.9-4.3-6.3-6-11.7-5.6c-6.2,0.5-12.8,1.7-18.7,0.3
		c-15-3.5-29.2-21.4-30.4-36.8C1.4,16.5,1.6,15.6,1.7,14.2z"/>
	<circle cx="154.5" cy="55" r="49"/>
</g>
</svg>
